<svg
        xmlns="http://www.w3.org/2000/svg"
        xmlns:xlink="http://www.w3.org/1999/xlink"
        width="31px" height="28px">
    <path fill-rule="evenodd"  fill="rgb(239, 106, 0)"
          d="M29.647,0.213 C28.248,-0.557 26.687,0.928 25.772,1.809 C23.674,3.900 21.898,6.320 19.908,8.521 C17.701,10.941 15.657,13.362 13.397,15.727 C12.106,17.047 10.706,18.478 9.846,20.129 C7.908,18.203 6.240,16.112 4.088,14.407 C2.528,13.197 -0.055,12.316 -0.001,15.233 C0.106,19.028 3.389,23.100 5.810,25.685 C6.832,26.785 8.177,27.941 9.738,27.996 C11.621,28.106 13.558,25.795 14.688,24.530 C16.679,22.329 18.293,19.854 20.123,17.598 C22.490,14.627 24.912,11.712 27.225,8.686 C28.678,6.815 33.252,2.194 29.647,0.213 ZM2.366,15.012 C2.312,15.012 2.259,15.012 2.151,15.067 C1.936,15.012 1.774,14.957 1.559,14.847 L1.559,14.847 C1.721,14.737 1.990,14.792 2.366,15.012 Z"/>
</svg>